<svg xmlns="http://www.w3.org/2000/svg" viewBox="0 0 48 48">
    <title>user share 3</title>
    <g stroke-miterlimit="10" fill="#000000" transform="translate(0.25 0.25)"
        class="nc-icon-wrapper">
        <path
            d="M32 25.7558C29.59 24.632 26.8736 24 24 24C14.0595 24 6 31.5622 6 40.8894C14.8327 42.9609 23.6666 43.5076 32.5 42.5294"
            stroke="#000000" stroke-width="2.5" stroke-linecap="square" fill="none"
            stroke-linejoin="miter"></path>
        <path
            d="M24 19C28.4183 19 32 15.4183 32 11C32 6.58172 28.4183 3 24 3C19.5817 3 16 6.58172 16 11C16 15.4183 19.5817 19 24 19Z"
            stroke="#000000" stroke-width="2.5" stroke-linecap="square" fill="none"
            stroke-linejoin="miter"></path>
        <path
            d="M29 37C30.6569 37 32 35.6569 32 34C32 32.3431 30.6569 31 29 31C27.3431 31 26 32.3431 26 34C26 35.6569 27.3431 37 29 37Z"
            stroke="#000000" stroke-width="2.5" stroke-linecap="square" data-color="color-2"
            fill="none" stroke-linejoin="miter"></path>
        <path
            d="M42 30C43.6569 30 45 28.6569 45 27C45 25.3431 43.6569 24 42 24C40.3431 24 39 25.3431 39 27C39 28.6569 40.3431 30 42 30Z"
            stroke="#000000" stroke-width="2.5" stroke-linecap="square" data-color="color-2"
            fill="none" stroke-linejoin="miter"></path>
        <path
            d="M42 44C43.6569 44 45 42.6569 45 41C45 39.3431 43.6569 38 42 38C40.3431 38 39 39.3431 39 41C39 42.6569 40.3431 44 42 44Z"
            stroke="#000000" stroke-width="2.5" stroke-linecap="square" data-color="color-2"
            fill="none" stroke-linejoin="miter"></path>
        <path d="M31.5 32L39 28" stroke="#000000" stroke-width="2.5" data-color="color-2"
            fill="none" data-cap="butt" stroke-linecap="butt"></path>
        <path d="M31.5 36L39 40" stroke="#000000" stroke-width="2.5" data-color="color-2"
            fill="none" data-cap="butt" stroke-linecap="butt"></path>
    </g>
</svg>