<?xml version="1.0" encoding="UTF-8"?><svg id="Layer_1" xmlns="http://www.w3.org/2000/svg" xmlns:xlink="http://www.w3.org/1999/xlink" viewBox="0 0 1000 1000"><defs><style>.cls-1{fill:#e72c37;}.cls-2{fill:#c30135;}.cls-3{fill:#f45821;}</style><symbol id="New_Symbol" viewBox="0 0 180.2 176.75"><path class="cls-3" d="M69.05,49.45c-2.2-5.32-5.88-7.46-11.91-7.3-14.25.38-28.52.06-42.78-.09-2.75-.03-4.66.8-6.12,3.19-1.67,2.75-3.63,5.33-5.47,7.99,1.32-1.35,2.61-2.75,4-4.04.6-.56,1.41-.91,2.12-1.35.41.85,1.26,1.75,1.16,2.53-.55,4.12,2.06,5.24,5.24,6.27,2.19.71,4.19,2,6.28,3.03.48-.01.96-.02,1.44-.03.24-.01.49-.03.73-.04,3.14.3,6.27.61,9.41.91,0,0,.05-.02.05-.02.29,1.17.83,2.34.84,3.51.06,8.33,0,16.65,0,24.98.61-2.3.56-5.97,1.96-6.65,3.69-1.78,7.31-5.34,12.13-3.01.19-5.22.38-10.44.56-15.65h0c-.26-.28-.53-.55-.79-.82-.19-.06-.37-.14-.54-.26-.41-.17-.82-.35-1.23-.52l-.11-.04c-1.45-.32-2.9-.65-4.34-.97.07-.4.15-.8.22-1.2,1.23,0,2.47,0,3.7,0,7.22-.04,14.45,0,21.67-.14,3.99-.08,5.26-2.5,3.49-6.14-.65-1.34-1.13-2.76-1.69-4.14Z"/><path class="cls-3" d="M92.34,0c-.57,0-1.14,0-1.72,0-8.15,7.24-16.26,14.51-24.46,21.68-2.39,2.09-1.74,4.06-.3,6.19,2.47,2.32,4.94,4.65,7.41,6.97,5.07.21,5.55.15,4.93-4.88-.7-5.66,3.45-7.87,6.48-10.99.79-.82,1.86-1.36,2.71-2.14,4.34-4,4.77-3.94,8.15,1.26,1.82,1.55,3.58,3.18,5.48,4.63,2.57,1.96,3.65,4.36,2.75,7.53.31,1.81.62,3.62.93,5.43,0,0,.04.02.04.02,4.51-3.21,9.04-6.38,13.48-9.68.32-.24-.04-1.39-.08-2.11,0,0-.09-.07-.09-.07-.25-.32-.49-.65-.74-.97,0,0-.08-.14-.08-.14-.26-.35-.52-.69-.78-1.03,0,0-.03-.05-.03-.05-.48-.52-.96-1.05-1.44-1.57,0,0-.08-.07-.08-.07-.23-.23-.46-.47-.69-.7,0,0-.09-.09-.09-.09-.23-.23-.46-.46-.7-.69,0,0-.09-.09-.09-.09-.8-.54-1.6-1.07-2.4-1.61-.46-.46-.92-.91-1.38-1.37-.64-.54-1.27-1.09-1.91-1.63-.44-.42-.87-.83-1.31-1.25-.34-.32-.67-.64-1.01-.96-2.15-2.06-4.29-4.12-6.44-6.17-.31.03-.46-.1-.47-.4-.81-.63-1.61-1.26-2.42-1.88-1.22-1.05-2.45-2.1-3.67-3.15Z"/><path class="cls-1" d="M83.66,53.96s.02.03.02.03c.26.51.51,1.01.77,1.51,0,0,0,.03,0,.03.26.64.52,1.29.78,1.93,0,0,0,0,0,0,.23.28.45.55.68.83,0,0,.05.05.05.05.26.24.52.48.78.71,0,0,.02.02.02.02.26.24.53.48.79.73,0,0,.01.01.01.01.25.26.51.51.76.77,0,0,.01.01.01.01.22.27.45.54.67.81,0,0,.04.06.04.06.21.25.43.51.64.76,0,0,.07.1.07.1.9-.28,1.89-.42,2.7-.87,4.97-2.71,6.85-7.7,8.91-12.48,1.21-2.8,2.03-5.77,3.03-8.66-.85.27-1.7.54-2.55.81l-1.33.67-.17.08c-2.05,1.3-4.09,2.59-6.14,3.89-1.67,2.05-3.39,2.3-5.54.52-2.25-1.86-4.64-3.57-7.12-5.1-1.19-.74-2.72-.92-4.1-1.35.14.68.28,1.36.41,2.05.38.28.75.55,1.13.83,0,0,0,.01,0,.01.25.51.5,1.03.76,1.54,0,0,.01.02.01.02.25.51.51,1.02.76,1.53,0,0,.01.03.01.03.28.77.55,1.53.83,2.3,0,0,0-.02,0-.02.24.53.47,1.05.71,1.58,0,0,.01.02.01.02.27.77.55,1.53.82,2.3,0,0,0,0,0,0,.25.65.5,1.29.76,1.94Z"/><path class="cls-3" d="M98.52,72.6c-1.32-1.36-2.64-2.72-3.96-4.08-1.35-.59-2.7-1.17-4.05-1.76-1.39,1.41-2.92,2.71-4.13,4.25-.84,1.07-1.25,2.49-1.85,3.73.23,6.6.47,13.22.71,19.84.04-.42.08-.84.12-1.27-.05-.9-.2-1.81-.12-2.7.23-2.82.62-5.63.79-8.45.21-3.33,2.15-6.15,5.08-5.52,2.48.53,4.73,3.38,6.45,5.67.93,1.24.54,3.47.74,5.25.07-4.99.15-9.98.22-14.97Z"/><path class="cls-1" d="M85.24,94.59c-.24-6.62-.47-13.24-.7-19.84-.22,14.6-.33,29.19-.71,43.77-.19,7.47-.79,14.93-1.35,22.38-.46,6.11-3.25,11.36-6.52,16.39-.02.52-.04,1.03-.06,1.54,0,0,.02.04.02.04.38.38.76.77,1.13,1.15.16.09.32.09.48,0,.09-.1.18-.21.27-.31.43-1.8.48-3.83,1.37-5.37,4.86-8.44,5.46-17.94,6.37-27.18.91-9.28.38-18.71.39-28.07,0-1.5-.44-3-.68-4.5Z"/><path class="cls-1" d="M21.56,59.68c-2.09-1.03-4.09-2.33-6.28-3.03-3.19-1.03-5.8-2.15-5.24-6.27.1-.78-.75-1.68-1.16-2.53-.71.44-1.52.79-2.12,1.35-1.39,1.29-2.67,2.69-4,4.04,0,0-.14.13-.14.13,0,0,.1.17.1.17-.16.13-.32.25-.48.37-.19.34-.39.68-.58,1.01,0,.23-.09.42-.28.57-.2.37-.39.73-.58,1.08-.27.22-.54.46-.82.69.02.83.04,1.66.06,2.48,7.17-.02,14.33-.04,21.5-.05Z"/><path class="cls-2" d="M89.96,172.41c.71,1.67,1.42,3.34,1.84,4.34.43-1.3.75-3.66,1.94-5.44,1.23-1.84,3.37-3.05,5.01-4.64,1.46-1.41,2.79-2.96,4.18-4.45-.88-.5-1.76-1.01-2.64-1.51-.67.79-1.35,1.58-2.02,2.37-1.28,1.34-2.56,2.67-3.84,4.01-.17.14-.34.28-.5.42-.03.19-.14.29-.33.32-.16.15-.31.3-.47.45-.04.19-.15.3-.34.34-.15.15-.3.3-.45.45-.01.17-.11.26-.28.26-.27.02-.54.03-.81.05-1.46-1.32-2.91-2.64-4.37-3.96-.47-.42-.94-.84-1.41-1.26-1.14-.9-2.28-1.81-3.41-2.71-.69-.04-1.38-.08-2.07-.12,0,0-.11.1-.11.1.39.8.78,1.61,1.17,2.41.23.03.35.15.38.38,1.54,1.44,3.08,2.88,4.62,4.33,0,0,0,0,0,0,.26.26.52.52.77.78,0,0,0,0,0,0,.38.26.76.53,1.14.79.4.38.81.77,1.21,1.15.27.38.53.76.8,1.14,0,0,0,0,0,0Z"/><path class="cls-1" d="M78.04,160.84c.61.2,1.22.4,1.83.59,0,0,.11-.1.11-.1-.73-.54-1.46-1.08-2.19-1.63-.09.1-.18.2-.27.31.17.27.34.55.52.82Z"/><path class="cls-3" d="M0,57.25c.28-.24.55-.47.82-.69-.28.24-.55.47-.82.69Z"/><path class="cls-3" d="M2.25,53.9c.17-.11.33-.24.48-.37-.16.12-.32.24-.48.37Z"/><path class="cls-2" d="M108.54,128.47s-.07.05-.07.05c4.48.37,8.96.8,13.45,1,.45.02,1.17-1.26,1.42-2.04,1.64-5.13,3.19-10.29,4.77-15.44.3-.84.6-1.69.9-2.53,0,0-.07.14-.07.14,2.18-2.81,6.62-3.34,10.87-1.3l1.53.02c4.38-.77,8.77-1.54,13.15-2.31.52.06,1.05.12,1.57.18.29.21.58.42.87.64.23.61.47,1.21.7,1.82v.03s.36-.06.36-.06l.35.06.76,1.22s-.15.15-.15.15c.59,1.87,1.19,3.73,1.78,5.6.52,1.82,1.05,3.64,1.57,5.45.85,1.97,1.5,4.05,2.61,5.86.7,1.14,2.02,2.51,3.18,2.63,3.33.37,6.72.11,10.08.18,2.14.04,2.42-.85,1.62-2.63-2.28-5.07-4.5-10.16-6.74-15.24-.45-.92-.9-1.84-1.35-2.77l-.12-.34c-.23-.32-.46-.63-.7-.95l.06.03c-.27-.66-.55-1.31-.82-1.97l.03-.12-.81-1.82s.01.04.01.04c-.27-.66-.53-1.32-.8-1.98,0,0,.04-.08.04-.08-.54-1.26-1.07-2.52-1.61-3.78l-.02-.09c-.25-.37-.5-.74-.75-1.11h.06c-.78-1.54-1.57-3.1-2.35-4.66l.06-.05c-4.17-3.84-8.67-3.56-13.35-1.09.07.6.13,1.21.2,1.81.18.04.36.11.52.21.27.51.54,1.02.81,1.54l-.06-.02c2.26,2.57,1.09,3.74-1.75,3.78-5.02.07-10.04-.01-15.05-.22-.71-.03-2-1.15-1.97-1.71.15-2.69-1.21-3.99-3.59-3.99-2.69,0-5.64-.57-7.05,3.11-1.84,4.79-4.16,9.39-6.28,14.07-1.31,3.14-2.63,6.28-3.94,9.42-.25.63-.51,1.26-.76,1.89,0,0-.02.03-.02.03-.25.51-.51,1.02-.76,1.52,0,0-.01.03-.01.03-.26.77-.51,1.53-.77,2.3,0,0-.01.03-.01.03-.25.51-.5,1.02-.76,1.53,0,0-.01.03-.01.03-.27.62-.54,1.25-.81,1.87Z"/><path class="cls-3" d="M142.84,39.02c-1.53,2.97-3.06,5.93-4.59,8.9-2.1,5.33-4.2,10.67-6.3,16-1.52,5.58-3.05,11.16-4.57,16.74,5.17-2.67,9.2-.69,10.17,5.01.74-1.62,1.43-3.27,2.23-4.86,1-1.99,2.09-3.94,3.14-5.91.97,2.23,1.93,4.46,2.9,6.69,0,0,.05.02.05.02.23.5.47,1.01.7,1.51l.04.08c.28.87.56,1.74.85,2.61.24.16.47.32.71.48.61-7.04,2.67-8.41,10.68-7.12-1.81-4.83-3.57-9.67-5.43-14.48-2.75-7.07-5.57-14.11-8.36-21.16l.06-.03c-.24-.6-.47-1.2-.71-1.8-.27-.52-.53-1.04-.8-1.57,0,0-.05-.22-.05-.22-.24-.3-.48-.6-.72-.89Z"/><path class="cls-1" d="M137.55,85.67c-.97-5.69-5.01-7.68-10.17-5.01-2.61,6.7-5.26,13.39-7.83,20.12-1.14,2.98-2.11,6.01-3.16,9.03,2.12-4.68,4.44-9.28,6.28-14.07,1.41-3.68,4.36-3.1,7.05-3.11,2.39,0,3.74,1.3,3.59,3.99-.03.56,1.26,1.68,1.97,1.71,5.01.21,10.04.29,15.05.22,2.84-.04,4.01-1.21,1.75-3.78.18,2.04-.84,2.69-2.77,2.64-4.13-.1-8.27-.18-12.4-.02-2.87.11-2.96-1.09-2.14-3.29,1.03-2.77,1.86-5.61,2.78-8.42Z"/><path class="cls-2" d="M104.6,151.53c-.26-.52-.52-1.04-.78-1.55-4.44-8.33-4.85-17.46-5.25-26.58-.2-4.62-.15-9.26-.22-13.89-.21-1.64-.38-3.29-.63-4.92-.75-4.76-1.46-9.52-2.33-14.25-.44-2.36-1.67-2.47-3.56-1.06-2.03,1.52-4.3,2.71-6.47,4.04-.04.42-.08.84-.12,1.27.24,1.5.68,3,.68,4.5-.01,9.36.52,18.79-.39,28.07-.91,9.24-1.51,18.74-6.37,27.18-.89,1.54-.94,3.57-1.37,5.37.73.54,1.46,1.08,2.19,1.63.69.04,1.38.08,2.08.12.04-.32.08-.64.12-.95.48-.42.95-.85,1.43-1.27,1.25-.85,2.58-1.61,3.74-2.57,4.67-3.89,6.18-3.64,9.61,1.76,0,0,.06.14.06.14.27-.04.54-.07.81-.1.19.2.38.39.56.59.01.19.11.27.3.24.16,0,.29.08.38.22.22.2.43.41.65.61,0,0,.22.22.22.22.03.2.14.33.34.37.88.5,1.76,1.01,2.64,1.51,0,0,.22-.15.22-.15.46-.41.91-.82,1.37-1.23,0,0,.27-.21.27-.21.6-.84,1.21-1.68,1.82-2.52-.67-2.19-1.33-4.38-2-6.57Z"/><path class="cls-1" d="M106.6,158.1c-.61.84-1.21,1.68-1.82,2.52.61-.84,1.21-1.68,1.82-2.52Z"/><path class="cls-1" d="M104.51,160.83c-.46.41-.91.82-1.37,1.23.46-.41.91-.82,1.37-1.23Z"/><path class="cls-1" d="M34.03,88.99c-.08,12.97-.18,25.94-.23,38.91-.02,3.86,2.81,2.25,4.73,2.36-3.27-.4-4-2.39-3.92-5.43.19-7.24.54-14.53-.07-21.73-.6-7.15,1.45-12.3,7.44-16.45,4.51-3.12,4.42-3.51,6.79,1.34-.22-2.89-.44-5.78-.66-8.66-4.81-2.34-8.44,1.23-12.13,3.01-1.4.68-1.35,4.34-1.96,6.65Z"/><path class="cls-1" d="M23.01,59.65c.25.09.5.08.73-.04-.25.01-.49.03-.73.04Z"/><path class="cls-1" d="M85.36,93.32c2.17-1.33,4.45-2.52,6.47-4.04,1.89-1.42,3.12-1.3,3.56,1.06.88,4.73,1.59,9.5,2.33,14.25.26,1.63.42,3.28.63,4.92-.02-7.31-.04-14.62-.05-21.94-.2-1.78.19-4.01-.74-5.25-1.72-2.29-3.97-5.14-6.45-5.67-2.93-.62-4.88,2.19-5.08,5.52-.18,2.82-.56,5.63-.79,8.45-.07.89.08,1.8.12,2.7Z"/><path class="cls-2" d="M48.77,87.99c-2.37-4.85-2.28-4.47-6.79-1.34-5.99,4.15-8.04,9.3-7.44,16.45.6,7.2.25,14.49.07,21.73-.08,3.04.66,5.02,3.92,5.43,2.84.17,5.71.11,8.5.56,2.67.43,3.18-.75,3.11-2.96-.47-13.29-.92-26.58-1.37-39.87Z"/><path class="cls-1" d="M163.97,92.32c-1.71-4.38-3.42-8.77-5.12-13.15-8.01-1.3-10.07.07-10.68,7.12,0,0,.07-.07.07-.07.14.17.18.35.12.55-.12.19-.15.4-.11.62.26.64.52,1.28.78,1.93h0c.25.53.51,1.05.76,1.57,0,0,0,.05,0,.05.27.1.55.21.82.31,4.68-2.48,9.18-2.75,13.35,1.09Z"/><path class="cls-1" d="M141.33,108.37c4.59.4,9.13.54,13.15-2.31-4.38.77-8.77,1.54-13.15,2.31Z"/><path class="cls-1" d="M128.93,109.65c3.62-.43,7.25-.87,10.87-1.3-4.25-2.04-8.69-1.51-10.87,1.3Z"/><path class="cls-1" d="M166.27,97.04c-.78-1.56-1.57-3.11-2.35-4.67.78,1.56,1.57,3.11,2.35,4.67Z"/><path class="cls-1" d="M168.59,102.01c-.54-1.26-1.07-2.52-1.61-3.78.54,1.26,1.07,2.52,1.61,3.78Z"/><path class="cls-1" d="M173.04,111.94c-.45-.92-.9-1.84-1.35-2.76.45.92.9,1.84,1.35,2.76Z"/><path class="cls-1" d="M128.1,112.04c.3-.84.6-1.69.9-2.53-.3.84-.6,1.69-.9,2.53Z"/><path class="cls-1" d="M151.34,93.25c.27.51.54,1.02.81,1.54-.27-.51-.54-1.02-.81-1.54Z"/><path class="cls-1" d="M169.35,104.06c-.27-.66-.53-1.32-.8-1.98.27.66.53,1.32.8,1.98Z"/><path class="cls-1" d="M170.15,105.84c-.27-.61-.54-1.21-.81-1.82.27.61.54,1.21.81,1.82Z"/><path class="cls-1" d="M170.94,107.93c-.27-.66-.55-1.31-.82-1.97.27.66.55,1.31.82,1.97Z"/><path class="cls-1" d="M158.33,108.72c.25.41.51.81.76,1.22-.25-.41-.51-.81-.76-1.22Z"/><path class="cls-1" d="M156.06,106.24c.29.21.58.42.87.64-.29-.21-.58-.42-.87-.64Z"/><path class="cls-1" d="M166.96,98.14c-.25-.37-.5-.74-.75-1.11.25.37.5.74.75,1.11Z"/><path class="cls-1" d="M171.58,108.84c-.23-.32-.46-.63-.7-.95.23.32.46.63.7.95Z"/><path class="cls-1" d="M82.17,160.51c.48-.42.95-.85,1.43-1.27-.48.42-.95.85-1.43,1.27Z"/><path class="cls-3" d="M83.88,34.79c.21.3.42.59.63.89.25.27.5.53.75.8.22.1.44.2.66.31,1.35-2.06,2.54-4.25,4.1-6.14,1.37-1.67,3.16-3,4.76-4.47.95,1.13,2.26,2.12,2.76,3.42.67,1.75.7,3.73,1.01,5.61.23-3.03.46-6.06.69-9.09-2.22-1.7-4.43-3.4-6.65-5.09-7.41,2.22-9.23,5.11-8.71,13.77Z"/><path class="cls-1" d="M98.54,35.21c-.31-1.88-.34-3.87-1.01-5.61-.5-1.3-1.81-2.29-2.76-3.42-1.6,1.48-3.39,2.81-4.76,4.47-1.56,1.89-2.75,4.08-4.1,6.14,0,.17.03.33.11.48.26.26.52.52.79.77.26.26.52.52.78.78.26.26.52.52.78.78.26.26.53.51.79.77.26.26.52.51.78.77,4.59.53,6.16-3.33,8.6-5.92Z"/><path class="cls-3" d="M148.24,86.21c-.13.22-.09.41.12.56.06-.2.02-.39-.12-.56Z"/></symbol></defs><use width="180.2" height="176.75" transform="translate(0 9.59) scale(5.55)" xlink:href="#New_Symbol"/></svg>